<svg width="30" height="30" viewBox="0 0 30 30" fill="none" xmlns="http://www.w3.org/2000/svg">
<path d="M14.9981 0.292969C6.71625 0.292969 0 7.03547 0 15.353C0 22.0055 4.2975 27.6492 10.26 29.6423C11.01 29.7811 11.2838 29.3161 11.2838 28.9167C11.2838 28.5586 11.2706 27.6117 11.2631 26.3555C7.09125 27.2648 6.21 24.3361 6.21 24.3361C5.52938 22.5961 4.545 22.133 4.545 22.133C3.18188 21.1992 4.64625 21.218 4.64625 21.218C6.15187 21.3248 6.94313 22.7705 6.94313 22.7705C8.28188 25.0711 10.455 24.4073 11.31 24.0211C11.445 23.048 11.8331 22.3842 12.2625 22.0073C8.9325 21.6267 5.43 20.3348 5.43 14.5655C5.43 12.9211 6.015 11.5767 6.975 10.523C6.81938 10.1423 6.30563 8.61047 7.12125 6.53859C7.12125 6.53859 8.38125 6.13359 11.2463 8.08172C12.4425 7.74797 13.725 7.58109 15.0019 7.57547C16.275 7.58297 17.5594 7.74797 18.7575 8.08359C21.6206 6.13547 22.8787 6.54047 22.8787 6.54047C23.6962 8.61422 23.1825 10.1442 23.0287 10.5248C23.9906 11.5786 24.57 12.923 24.57 14.5673C24.57 20.3517 21.0637 21.6248 17.7225 21.998C18.2606 22.463 18.7406 23.3817 18.7406 24.7861C18.7406 26.7998 18.7219 28.4236 18.7219 28.9167C18.7219 29.3198 18.9919 29.7886 19.7531 29.6405C25.7062 27.6455 30 22.0036 30 15.353C30 7.03547 23.2838 0.292969 14.9981 0.292969Z" fill="#121212"/>
</svg>
