<svg width="30" height="30" viewBox="0 0 30 30" fill="none" xmlns="http://www.w3.org/2000/svg">
<path d="M20.625 0H9.375C4.19813 0 0 4.19813 0 9.375V20.625C0 25.8019 4.19813 30 9.375 30H20.625C25.8019 30 30 25.8019 30 20.625V9.375C30 4.19813 25.8019 0 20.625 0ZM27.1875 20.625C27.1875 24.2437 24.2437 27.1875 20.625 27.1875H9.375C5.75625 27.1875 2.8125 24.2437 2.8125 20.625V9.375C2.8125 5.75625 5.75625 2.8125 9.375 2.8125H20.625C24.2437 2.8125 27.1875 5.75625 27.1875 9.375V20.625Z" fill="white"/>
<path d="M15 7.5C10.8581 7.5 7.5 10.8581 7.5 15C7.5 19.1419 10.8581 22.5 15 22.5C19.1419 22.5 22.5 19.1419 22.5 15C22.5 10.8581 19.1419 7.5 15 7.5ZM15 19.6875C12.4162 19.6875 10.3125 17.5838 10.3125 15C10.3125 12.4144 12.4162 10.3125 15 10.3125C17.5838 10.3125 19.6875 12.4144 19.6875 15C19.6875 17.5838 17.5838 19.6875 15 19.6875Z" fill="white"/>
<path d="M23.0626 7.93691C23.6145 7.93691 24.062 7.48947 24.062 6.93753C24.062 6.38559 23.6145 5.93816 23.0626 5.93816C22.5107 5.93816 22.0632 6.38559 22.0632 6.93753C22.0632 7.48947 22.5107 7.93691 23.0626 7.93691Z" fill="white"/>
</svg>
