<svg width="30" height="30" viewBox="0 0 30 30" fill="none" xmlns="http://www.w3.org/2000/svg">
<path d="M29.4119 21.9394C25.4011 21.2794 23.5935 17.1712 23.5204 16.9969C23.5148 16.9856 23.511 16.9744 23.5035 16.9631C23.2991 16.5469 23.2504 16.2038 23.3629 15.9431C23.5823 15.4294 24.4223 15.1631 24.9773 14.9869C25.1386 14.9363 25.2905 14.8875 25.4161 14.8387C25.9636 14.6231 26.3537 14.3887 26.6124 14.1244C26.9199 13.8075 26.9799 13.5037 26.9762 13.3069C26.9668 12.8269 26.5993 12.3994 26.0124 12.1912C25.8155 12.1106 25.5886 12.0675 25.3599 12.0675C25.2042 12.0675 24.9717 12.0881 24.7523 12.1912C24.2836 12.4106 23.8635 12.5306 23.5016 12.5475C23.3104 12.5381 23.1754 12.4969 23.0873 12.4575C23.0985 12.27 23.1098 12.0769 23.1229 11.8781L23.1285 11.7919C23.2579 9.76125 23.4173 7.23563 22.746 5.73563C22.2866 4.70813 21.6697 3.825 20.9103 3.10875C20.2746 2.50875 19.5358 2.02125 18.7145 1.66125C17.2876 1.03125 15.9563 0.9375 15.2888 0.9375H15.2869C15.2606 0.9375 15.2363 0.9375 15.2138 0.9375C15.0281 0.939375 14.7262 0.943125 14.6981 0.943125C14.0325 0.943125 12.6993 1.03688 11.2686 1.66688C10.4492 2.02688 9.71413 2.5125 9.08035 3.1125C8.32469 3.82875 7.70966 4.71 7.25214 5.73375C6.58086 7.23188 6.74024 9.7575 6.86775 11.7862V11.79C6.88087 12.0075 6.89587 12.2344 6.909 12.4556C6.81149 12.4987 6.65211 12.5475 6.41772 12.5475C6.03896 12.5475 5.58894 12.4275 5.08079 12.1894C4.93078 12.12 4.76015 12.0844 4.57264 12.0844C4.27075 12.0844 3.95011 12.1725 3.67447 12.3356C3.3257 12.54 3.10069 12.8269 3.03882 13.1475C2.99944 13.3575 3.00131 13.7756 3.46634 14.1994C3.72322 14.4319 4.09824 14.6475 4.58389 14.8387C4.71139 14.8894 4.86328 14.9363 5.02266 14.9869C5.57769 15.1631 6.4196 15.4294 6.63898 15.9431C6.74962 16.2038 6.70086 16.5469 6.49648 16.9631C6.49085 16.9744 6.48523 16.9856 6.48148 16.9969C6.42897 17.1169 5.95083 18.195 4.97016 19.3331C4.41326 19.98 3.8001 20.5219 3.14757 20.9419C2.35066 21.4556 1.48999 21.7894 0.588077 21.9375C0.233686 21.9956 -0.0194511 22.3106 0.0011749 22.6688C0.00680016 22.7719 0.0311763 22.875 0.0743033 22.9744V22.9762C0.218685 23.3119 0.550576 23.595 1.0906 23.8444C1.75063 24.15 2.73693 24.4069 4.02511 24.6075C4.09074 24.7312 4.15824 25.0406 4.20512 25.2525C4.25387 25.4775 4.3045 25.71 4.37763 25.9556C4.45638 26.2219 4.65889 26.5406 5.18204 26.5406C5.3808 26.5406 5.60769 26.4956 5.87207 26.445C6.25834 26.37 6.78712 26.2669 7.44527 26.2669C7.81091 26.2669 8.18968 26.2987 8.57032 26.3625C9.30536 26.4844 9.93914 26.9306 10.6723 27.4481C11.7448 28.2056 12.9599 29.0625 14.8162 29.0625C14.8669 29.0625 14.9175 29.0606 14.9681 29.0569C15.0281 29.0606 15.105 29.0625 15.1838 29.0625C17.0401 29.0625 18.2552 28.2056 19.3277 27.45L19.3296 27.4481C20.0627 26.9325 20.6965 26.4862 21.4315 26.3644C21.8122 26.3006 22.191 26.2688 22.5566 26.2688C23.1866 26.2688 23.6854 26.3494 24.1298 26.4356C24.4204 26.4919 24.6454 26.52 24.8198 26.52H24.8367H24.8536C25.2361 26.52 25.5174 26.31 25.6242 25.9444C25.6955 25.7025 25.7461 25.4775 25.7968 25.2469C25.8399 25.0481 25.9111 24.7294 25.9749 24.6056C27.2631 24.4031 28.2494 24.1481 28.9094 23.8425C29.4476 23.5931 29.7794 23.31 29.9238 22.9762C29.9669 22.8769 29.9932 22.7737 29.9988 22.6669C30.0195 22.3125 29.7663 21.9956 29.4119 21.9394Z" fill="white"/>
</svg>
